<svg width="610" height="610" xmlns="http://www.w3.org/2000/svg" xmlns:xlink="http://www.w3.org/1999/xlink" xml:space="preserve" overflow="hidden"><defs><filter id="fx0" x="-10%" y="-10%" width="120%" height="120%" filterUnits="userSpaceOnUse" primitiveUnits="userSpaceOnUse"><feComponentTransfer color-interpolation-filters="sRGB"><feFuncR type="discrete" tableValues="0 0"/><feFuncG type="discrete" tableValues="0 0"/><feFuncB type="discrete" tableValues="0 0"/><feFuncA type="linear" slope="0.4" intercept="0"/></feComponentTransfer><feGaussianBlur stdDeviation="6.11111 6.11111"/></filter><clipPath id="clip1"><rect x="615" y="126" width="610" height="610"/></clipPath><linearGradient x1="644" y1="135" x2="1216" y2="707" gradientUnits="userSpaceOnUse" spreadMethod="reflect" id="fill2"><stop offset="0" stop-color="#FFE699"/><stop offset="0.5" stop-color="#FFD966"/><stop offset="1" stop-color="#FFC000"/></linearGradient></defs><g clip-path="url(#clip1)" transform="translate(-615 -126)"><g filter="url(#fx0)" transform="translate(614 125)"><g><path d="M20.2771 305.723C20.2771 147.769 148.324 19.7228 306.277 19.7228 464.23 19.7228 592.277 147.769 592.277 305.723 592.277 463.676 464.23 591.723 306.277 591.723 148.324 591.723 20.2771 463.676 20.2771 305.723Z" fill="#FF0000" fill-rule="evenodd"/></g></g><path d="M644 421C644 263.047 772.046 135 930 135 1087.95 135 1216 263.047 1216 421 1216 578.953 1087.95 707 930 707 772.046 707 644 578.953 644 421Z" fill="url(#fill2)" fill-rule="evenodd"/></g></svg>