<svg width="572" height="572" xmlns="http://www.w3.org/2000/svg" xmlns:xlink="http://www.w3.org/1999/xlink" xml:space="preserve" overflow="hidden"><defs><filter id="fx0" x="-10%" y="-10%" width="120%" height="120%" filterUnits="userSpaceOnUse" primitiveUnits="userSpaceOnUse"><feComponentTransfer color-interpolation-filters="sRGB"><feFuncR type="discrete" tableValues="0 0"/><feFuncG type="discrete" tableValues="0 0"/><feFuncB type="discrete" tableValues="0 0"/><feFuncA type="linear" slope="0.4" intercept="0"/></feComponentTransfer><feGaussianBlur stdDeviation="6.11111 6.11111"/></filter><filter id="fx1" x="-10%" y="-10%" width="120%" height="120%" filterUnits="userSpaceOnUse" primitiveUnits="userSpaceOnUse"><feComponentTransfer color-interpolation-filters="sRGB"><feFuncR type="discrete" tableValues="0 0"/><feFuncG type="discrete" tableValues="0 0"/><feFuncB type="discrete" tableValues="0 0"/><feFuncA type="linear" slope="0.4" intercept="0"/></feComponentTransfer><feGaussianBlur stdDeviation="6.11111 6.11111"/></filter><linearGradient x1="898" y1="953" x2="1178" y2="1233" gradientUnits="userSpaceOnUse" spreadMethod="reflect" id="fill2"><stop offset="0" stop-color="#FFE699"/><stop offset="0.5" stop-color="#FFD966"/><stop offset="1" stop-color="#FFC000"/></linearGradient></defs><g transform="translate(-644 -868)"><g filter="url(#fx0)" transform="translate(868 943)"><g><path d="M20.2772 159.723C20.2772 82.4028 82.9573 19.7226 160.277 19.7226 237.597 19.7226 300.277 82.4028 300.277 159.723 300.277 237.043 237.597 299.723 160.277 299.723 82.9573 299.723 20.2772 237.043 20.2772 159.723Z" fill="#FF0000" fill-rule="evenodd"/></g></g><path d="M898 1093C898 1015.68 960.68 953 1038 953 1115.32 953 1178 1015.68 1178 1093 1178 1170.32 1115.32 1233 1038 1233 960.68 1233 898 1170.32 898 1093Z" fill="url(#fill2)" fill-rule="evenodd"/><g filter="url(#fx1)" transform="translate(651 1018)"><g><path d="M233.234 19.7229C275.989 19.7229 312.673 45.7365 328.342 82.8107L331.205 92.0408 341.402 93.0694C379.735 100.919 408.57 134.861 408.57 175.542L407.749 183.692 416.202 181.066C421.678 179.945 427.348 179.356 433.155 179.356 479.615 179.356 517.277 217.046 517.277 263.54 517.277 310.033 479.615 347.723 433.155 347.723L430.102 347.415 430.102 347.723 123.497 347.723 118.009 347.723 118.009 347.169 102.694 345.624C55.6589 335.992 20.2772 294.345 20.2772 244.428 20.2772 187.379 66.4901 141.133 123.497 141.133L131.925 141.983 130.014 123.018C130.014 65.9695 176.227 19.7229 233.234 19.7229Z" fill="#FFFFFF" fill-rule="evenodd"/></g></g><path d="M893.957 1028C936.712 1028 973.395 1054.01 989.065 1091.09L991.928 1100.32 1002.12 1101.35C1040.46 1109.2 1069.29 1143.14 1069.29 1183.82L1068.47 1191.97 1076.92 1189.34C1082.4 1188.22 1088.07 1187.63 1093.88 1187.63 1140.34 1187.63 1178 1225.32 1178 1271.82 1178 1318.31 1140.34 1356 1093.88 1356L1090.82 1355.69 1090.82 1356 784.219 1356 778.732 1356 778.732 1355.45 763.417 1353.9C716.382 1344.27 681 1302.62 681 1252.7 681 1195.66 727.213 1149.41 784.219 1149.41L792.648 1150.26 790.737 1131.3C790.737 1074.25 836.95 1028 893.957 1028Z" fill="#FFFFFF" fill-rule="evenodd"/></g></svg>