<svg width="582" height="572" xmlns="http://www.w3.org/2000/svg" xmlns:xlink="http://www.w3.org/1999/xlink" xml:space="preserve" overflow="hidden"><defs><filter id="fx0" x="-10%" y="-10%" width="120%" height="120%" filterUnits="userSpaceOnUse" primitiveUnits="userSpaceOnUse"><feComponentTransfer color-interpolation-filters="sRGB"><feFuncR type="discrete" tableValues="0 0"/><feFuncG type="discrete" tableValues="0 0"/><feFuncB type="discrete" tableValues="0 0"/><feFuncA type="linear" slope="0.4" intercept="0"/></feComponentTransfer><feGaussianBlur stdDeviation="6.11111 6.11111"/></filter><clipPath id="clip1"><rect x="1264" y="1491" width="582" height="572"/></clipPath></defs><g clip-path="url(#clip1)" transform="translate(-1264 -1491)"><g filter="url(#fx0)" transform="translate(1263 1591)"><g><path d="M249.088 19.7225C295.026 19.7225 334.44 47.6395 351.276 87.4266L354.353 97.332 365.309 98.4358C406.495 106.86 437.477 143.285 437.477 186.944L436.595 195.69 445.677 192.872C451.561 191.668 457.653 191.036 463.893 191.036 513.811 191.036 554.277 231.484 554.277 281.38 554.277 331.275 513.811 371.723 463.893 371.723L460.612 371.392 460.612 371.722 131.181 371.722 125.285 371.722 125.285 371.128 108.83 369.47C58.2929 359.134 20.2771 314.439 20.2771 260.869 20.2771 199.646 69.9303 150.016 131.181 150.016L140.237 150.928 138.184 130.576C138.184 69.353 187.837 19.7225 249.088 19.7225Z" fill="#FFFFFF" fill-rule="evenodd"/></g></g><path d="M1521.81 1601C1567.75 1601 1607.16 1628.92 1624 1668.7L1627.08 1678.61 1638.03 1679.71C1679.22 1688.14 1710.2 1724.56 1710.2 1768.22L1709.32 1776.97 1718.4 1774.15C1724.28 1772.95 1730.38 1772.31 1736.62 1772.31 1786.53 1772.31 1827 1812.76 1827 1862.66 1827 1912.55 1786.53 1953 1736.62 1953L1733.33 1952.67 1733.33 1953 1403.9 1953 1398.01 1953 1398.01 1952.41 1381.55 1950.75C1331.02 1940.41 1293 1895.72 1293 1842.15 1293 1780.92 1342.65 1731.29 1403.9 1731.29L1412.96 1732.21 1410.91 1711.85C1410.91 1650.63 1460.56 1601 1521.81 1601Z" fill="#FFFFFF" fill-rule="evenodd"/></g></svg>