<svg width="572" height="572" xmlns="http://www.w3.org/2000/svg" xmlns:xlink="http://www.w3.org/1999/xlink" xml:space="preserve" overflow="hidden"><defs><filter id="fx0" x="-10%" y="-10%" width="120%" height="120%" filterUnits="userSpaceOnUse" primitiveUnits="userSpaceOnUse"><feComponentTransfer color-interpolation-filters="sRGB"><feFuncR type="discrete" tableValues="0 0"/><feFuncG type="discrete" tableValues="0 0"/><feFuncB type="discrete" tableValues="0 0"/><feFuncA type="linear" slope="0.4" intercept="0"/></feComponentTransfer><feGaussianBlur stdDeviation="6.11111 6.11111"/></filter><filter id="fx1" x="-10%" y="-10%" width="120%" height="120%" filterUnits="userSpaceOnUse" primitiveUnits="userSpaceOnUse"><feComponentTransfer color-interpolation-filters="sRGB"><feFuncR type="discrete" tableValues="0 0"/><feFuncG type="discrete" tableValues="0 0"/><feFuncB type="discrete" tableValues="0 0"/><feFuncA type="linear" slope="0.4" intercept="0"/></feComponentTransfer><feGaussianBlur stdDeviation="6.11111 6.11111"/></filter></defs><g transform="translate(-644 -1491)"><g filter="url(#fx0)" transform="translate(742 1607)"><g><path d="M195.527 19.7228C230.712 19.7228 260.901 41.0571 273.796 71.4625L276.152 79.0323 284.543 79.8759C316.089 86.3136 339.818 114.15 339.818 147.514L339.143 154.198 346.099 152.044C350.605 151.125 355.271 150.642 360.05 150.642 398.284 150.642 429.277 181.552 429.277 219.682 429.277 257.812 398.284 288.723 360.05 288.723L357.537 288.47 357.537 288.723 105.221 288.723 100.705 288.723 100.705 288.269 88.1015 287.002C49.3943 279.102 20.2773 244.946 20.2773 204.008 20.2773 157.222 58.3076 119.294 105.221 119.294L112.156 119.991 110.584 104.437C110.584 57.6507 148.614 19.7228 195.527 19.7228Z" fill="#767171" fill-rule="evenodd"/></g></g><path d="M947.25 1617C982.435 1617 1012.62 1638.33 1025.52 1668.74L1027.87 1676.31 1036.27 1677.15C1067.81 1683.59 1091.54 1711.43 1091.54 1744.79L1090.87 1751.47 1097.82 1749.32C1102.33 1748.4 1106.99 1747.92 1111.77 1747.92 1150.01 1747.92 1181 1778.83 1181 1816.96 1181 1855.09 1150.01 1886 1111.77 1886L1109.26 1885.75 1109.26 1886 856.943 1886 852.427 1886 852.427 1885.55 839.824 1884.28C801.117 1876.38 772 1842.22 772 1801.29 772 1754.5 810.03 1716.57 856.943 1716.57L863.879 1717.27 862.307 1701.71C862.307 1654.93 900.337 1617 947.25 1617Z" fill="#767171" fill-rule="evenodd"/><g filter="url(#fx1)" transform="translate(648 1628)"><g><path d="M214.809 19.7227C253.865 19.7227 287.375 43.4362 301.689 77.2326L304.304 85.6466 313.618 86.5842C348.635 93.7399 374.975 124.681 374.975 161.766L374.226 169.195 381.947 166.801C386.949 165.779 392.129 165.242 397.434 165.242 439.873 165.242 474.277 199.6 474.277 241.982 474.277 284.365 439.873 318.723 397.434 318.723L394.644 318.442 394.644 318.722 114.566 318.722 109.553 318.722 109.553 318.218 95.5636 316.809C52.5977 308.029 20.2772 270.064 20.2772 224.56 20.2772 172.556 62.4917 130.398 114.566 130.398L122.265 131.173 120.52 113.885C120.52 61.8804 162.735 19.7227 214.809 19.7227Z" fill="#FFFFFF" fill-rule="evenodd"/></g></g><path d="M872.532 1638C911.588 1638 945.097 1661.71 959.411 1695.51L962.027 1703.92 971.341 1704.86C1006.36 1712.02 1032.7 1742.96 1032.7 1780.04L1031.95 1787.47 1039.67 1785.08C1044.67 1784.06 1049.85 1783.52 1055.16 1783.52 1097.6 1783.52 1132 1817.88 1132 1860.26 1132 1902.64 1097.6 1937 1055.16 1937L1052.37 1936.72 1052.37 1937 772.289 1937 767.276 1937 767.276 1936.5 753.286 1935.09C710.32 1926.31 678 1888.34 678 1842.84 678 1790.83 720.214 1748.68 772.289 1748.68L779.988 1749.45 778.243 1732.16C778.243 1680.16 820.457 1638 872.532 1638Z" fill="#FFFFFF" fill-rule="evenodd"/></g></svg>