<svg width="572" height="572" xmlns="http://www.w3.org/2000/svg" xmlns:xlink="http://www.w3.org/1999/xlink" xml:space="preserve" overflow="hidden"><defs><filter id="fx0" x="-10%" y="-10%" width="120%" height="120%" filterUnits="userSpaceOnUse" primitiveUnits="userSpaceOnUse"><feComponentTransfer color-interpolation-filters="sRGB"><feFuncR type="discrete" tableValues="0 0"/><feFuncG type="discrete" tableValues="0 0"/><feFuncB type="discrete" tableValues="0 0"/><feFuncA type="linear" slope="0.4" intercept="0"/></feComponentTransfer><feGaussianBlur stdDeviation="6.11111 6.11111"/></filter><filter id="fx1" x="-10%" y="-10%" width="120%" height="120%" filterUnits="userSpaceOnUse" primitiveUnits="userSpaceOnUse"><feComponentTransfer color-interpolation-filters="sRGB"><feFuncR type="discrete" tableValues="0 0"/><feFuncG type="discrete" tableValues="0 0"/><feFuncB type="discrete" tableValues="0 0"/><feFuncA type="linear" slope="0.4" intercept="0"/></feComponentTransfer><feGaussianBlur stdDeviation="6.11111 6.11111"/></filter><filter id="fx2" x="-10%" y="-10%" width="120%" height="120%" filterUnits="userSpaceOnUse" primitiveUnits="userSpaceOnUse"><feComponentTransfer color-interpolation-filters="sRGB"><feFuncR type="discrete" tableValues="0 0"/><feFuncG type="discrete" tableValues="0 0"/><feFuncB type="discrete" tableValues="0 0"/><feFuncA type="linear" slope="0.4" intercept="0"/></feComponentTransfer><feGaussianBlur stdDeviation="6.11111 6.11111"/></filter></defs><g transform="translate(-2382 -1491)"><g filter="url(#fx0)" transform="translate(2466 1760)"><g><path d="M0 0 11.2588 22.5168" stroke="#00B0F0" stroke-width="23" stroke-linecap="round" stroke-miterlimit="8" fill="none" fill-rule="evenodd" transform="matrix(-1 0 0 1 271.036 55.2225)"/><path d="M0 0 11.2588 22.5172" stroke="#00B0F0" stroke-width="23" stroke-linecap="round" stroke-miterlimit="8" fill="none" fill-rule="evenodd" transform="matrix(-1 0 0 1 59.0359 55.2225)"/><path d="M0 0 9.3085 22.5172" stroke="#00B0F0" stroke-width="23" stroke-linecap="round" stroke-miterlimit="8" fill="none" fill-rule="evenodd" transform="matrix(-1 0 0 1 230.086 172.223)"/><path d="M0 0 11.2584 25.1686" stroke="#00B0F0" stroke-width="23" stroke-linecap="round" stroke-miterlimit="8" fill="none" fill-rule="evenodd" transform="matrix(-1 0 0 1 144.036 112.223)"/><path d="M0 0 9.77224 26.9738" stroke="#00B0F0" stroke-width="23" stroke-linecap="round" stroke-miterlimit="8" fill="none" fill-rule="evenodd" transform="matrix(-1 0 0 1 118.55 230.223)"/><path d="M0 0 9.77224 26.9738" stroke="#00B0F0" stroke-width="23" stroke-linecap="round" stroke-miterlimit="8" fill="none" fill-rule="evenodd" transform="matrix(-1 0 0 1 41.5498 177.223)"/><path d="M0 0 11.2584 25.1686" stroke="#00B0F0" stroke-width="23" stroke-linecap="round" stroke-miterlimit="8" fill="none" fill-rule="evenodd" transform="matrix(-1 0 0 1 181.036 31.2229)"/></g></g><path d="M0 0 11.2588 22.5168" stroke="#00B0F0" stroke-width="22.9167" stroke-linecap="round" stroke-miterlimit="8" fill="none" fill-rule="evenodd" transform="matrix(-1 0 0 1 2746.76 1805.5)"/><path d="M0 0 11.2588 22.5172" stroke="#00B0F0" stroke-width="22.9167" stroke-linecap="round" stroke-miterlimit="8" fill="none" fill-rule="evenodd" transform="matrix(-1 0 0 1 2534.76 1805.5)"/><path d="M0 0 9.3085 22.5172" stroke="#00B0F0" stroke-width="22.9167" stroke-linecap="round" stroke-miterlimit="8" fill="none" fill-rule="evenodd" transform="matrix(-1 0 0 1 2705.81 1922.5)"/><path d="M0 0 11.2584 25.1686" stroke="#00B0F0" stroke-width="22.9167" stroke-linecap="round" stroke-miterlimit="8" fill="none" fill-rule="evenodd" transform="matrix(-1 0 0 1 2619.76 1862.5)"/><path d="M0 0 9.77224 26.9738" stroke="#00B0F0" stroke-width="22.9167" stroke-linecap="round" stroke-miterlimit="8" fill="none" fill-rule="evenodd" transform="matrix(-1 0 0 1 2594.27 1980.5)"/><path d="M0 0 9.77224 26.9738" stroke="#00B0F0" stroke-width="22.9167" stroke-linecap="round" stroke-miterlimit="8" fill="none" fill-rule="evenodd" transform="matrix(-1 0 0 1 2517.27 1927.5)"/><path d="M0 0 11.2584 25.1686" stroke="#00B0F0" stroke-width="22.9167" stroke-linecap="round" stroke-miterlimit="8" fill="none" fill-rule="evenodd" transform="matrix(-1 0 0 1 2656.76 1781.5)"/><g filter="url(#fx1)" transform="translate(2511 1537)"><g><path d="M161.249 19.7225C189.551 19.7225 213.835 36.9327 224.208 61.4606L226.103 67.5671 232.853 68.2475C258.228 73.4408 277.316 95.8962 277.316 122.811L276.773 128.202 282.368 126.465C285.993 125.723 289.747 125.334 293.591 125.334 324.346 125.334 349.277 150.269 349.277 181.028 349.277 211.788 324.346 236.723 293.591 236.723L291.57 236.519 291.57 236.723 88.6058 236.723 84.9732 236.723 84.9732 236.356 74.8351 235.334C43.699 228.962 20.2773 201.409 20.2773 168.384 20.2773 130.642 50.8689 100.046 88.6058 100.046L94.185 100.608 92.9202 88.0611C92.9202 50.3186 123.512 19.7225 161.249 19.7225Z" fill="#767171" fill-rule="evenodd"/></g></g><path d="M2681.97 1547C2710.27 1547 2734.56 1564.21 2744.93 1588.74L2746.83 1594.84 2753.58 1595.52C2778.95 1600.72 2798.04 1623.17 2798.04 1650.09L2797.5 1655.48 2803.09 1653.74C2806.72 1653 2810.47 1652.61 2814.31 1652.61 2845.07 1652.61 2870 1677.55 2870 1708.31 2870 1739.06 2845.07 1764 2814.31 1764L2812.29 1763.8 2812.29 1764 2609.33 1764 2605.7 1764 2605.7 1763.63 2595.56 1762.61C2564.42 1756.24 2541 1728.69 2541 1695.66 2541 1657.92 2571.59 1627.32 2609.33 1627.32L2614.91 1627.89 2613.64 1615.34C2613.64 1577.6 2644.23 1547 2681.97 1547Z" fill="#767171" fill-rule="evenodd"/><g filter="url(#fx2)" transform="translate(2435 1554)"><g><path d="M177.103 19.7228C208.588 19.7228 235.603 38.8364 247.142 66.077L249.25 72.8588 256.76 73.6145C284.989 79.3822 306.224 104.321 306.224 134.212L305.619 140.2 311.844 138.271C315.877 137.447 320.052 137.014 324.329 137.014 358.542 137.014 386.277 164.707 386.277 198.869 386.277 233.03 358.542 260.723 324.329 260.723L322.08 260.496 322.08 260.723 96.2902 260.723 92.249 260.723 92.249 260.316 80.9708 259.181C46.3331 252.104 20.2773 221.503 20.2773 184.826 20.2773 142.909 54.3093 108.929 96.2902 108.929L102.497 109.554 101.09 95.6194C101.09 53.7027 135.122 19.7228 177.103 19.7228Z" fill="#FFFFFF" fill-rule="evenodd"/></g></g><path d="M2621.83 1564C2653.31 1564 2680.33 1583.11 2691.86 1610.35L2693.97 1617.14 2701.48 1617.89C2729.71 1623.66 2750.95 1648.6 2750.95 1678.49L2750.34 1684.48 2756.57 1682.55C2760.6 1681.72 2764.77 1681.29 2769.05 1681.29 2803.26 1681.29 2831 1708.98 2831 1743.15 2831 1777.31 2803.26 1805 2769.05 1805L2766.8 1804.77 2766.8 1805 2541.01 1805 2536.97 1805 2536.97 1804.59 2525.69 1803.46C2491.06 1796.38 2465 1765.78 2465 1729.1 2465 1687.19 2499.03 1653.21 2541.01 1653.21L2547.22 1653.83 2545.81 1639.9C2545.81 1597.98 2579.84 1564 2621.83 1564Z" fill="#FFFFFF" fill-rule="evenodd"/></g></svg>