<svg width="572" height="574" xmlns="http://www.w3.org/2000/svg" xmlns:xlink="http://www.w3.org/1999/xlink" xml:space="preserve" overflow="hidden"><defs><filter id="fx0" x="-10%" y="-10%" width="120%" height="120%" filterUnits="userSpaceOnUse" primitiveUnits="userSpaceOnUse"><feComponentTransfer color-interpolation-filters="sRGB"><feFuncR type="discrete" tableValues="0 0"/><feFuncG type="discrete" tableValues="0 0"/><feFuncB type="discrete" tableValues="0 0"/><feFuncA type="linear" slope="0.4" intercept="0"/></feComponentTransfer><feGaussianBlur stdDeviation="6.11111 6.11111"/></filter><filter id="fx1" x="-10%" y="-10%" width="120%" height="120%" filterUnits="userSpaceOnUse" primitiveUnits="userSpaceOnUse"><feComponentTransfer color-interpolation-filters="sRGB"><feFuncR type="discrete" tableValues="0 0"/><feFuncG type="discrete" tableValues="0 0"/><feFuncB type="discrete" tableValues="0 0"/><feFuncA type="linear" slope="0.4" intercept="0"/></feComponentTransfer><feGaussianBlur stdDeviation="6.11111 6.11111"/></filter><filter id="fx2" x="-10%" y="-10%" width="120%" height="120%" filterUnits="userSpaceOnUse" primitiveUnits="userSpaceOnUse"><feComponentTransfer color-interpolation-filters="sRGB"><feFuncR type="discrete" tableValues="0 0"/><feFuncG type="discrete" tableValues="0 0"/><feFuncB type="discrete" tableValues="0 0"/><feFuncA type="linear" slope="0.4" intercept="0"/></feComponentTransfer><feGaussianBlur stdDeviation="6.11111 6.11111"/></filter><linearGradient x1="3217" y1="912" x2="3417" y2="1112" gradientUnits="userSpaceOnUse" spreadMethod="reflect" id="fill3"><stop offset="0" stop-color="#FFE699"/><stop offset="0.5" stop-color="#FFD966"/><stop offset="1" stop-color="#FFC000"/></linearGradient></defs><g transform="translate(-2954 -874)"><g filter="url(#fx0)" transform="translate(3071 1161)"><g><path d="M0 0 11.2588 22.5168" stroke="#00B0F0" stroke-width="23" stroke-linecap="round" stroke-miterlimit="8" fill="none" fill-rule="evenodd" transform="matrix(-1 0 0 1 271.036 55.2228)"/><path d="M0 0 11.2588 22.5172" stroke="#00B0F0" stroke-width="23" stroke-linecap="round" stroke-miterlimit="8" fill="none" fill-rule="evenodd" transform="matrix(-1 0 0 1 59.0359 55.2228)"/><path d="M0 0 9.3085 22.5172" stroke="#00B0F0" stroke-width="23" stroke-linecap="round" stroke-miterlimit="8" fill="none" fill-rule="evenodd" transform="matrix(-1 0 0 1 231.086 171.223)"/><path d="M0 0 11.2584 25.1686" stroke="#00B0F0" stroke-width="23" stroke-linecap="round" stroke-miterlimit="8" fill="none" fill-rule="evenodd" transform="matrix(-1 0 0 1 144.036 111.223)"/><path d="M0 0 9.77224 26.9738" stroke="#00B0F0" stroke-width="23" stroke-linecap="round" stroke-miterlimit="8" fill="none" fill-rule="evenodd" transform="matrix(-1 0 0 1 118.55 229.223)"/><path d="M0 0 9.77224 26.9738" stroke="#00B0F0" stroke-width="23" stroke-linecap="round" stroke-miterlimit="8" fill="none" fill-rule="evenodd" transform="matrix(-1 0 0 1 41.5498 177.223)"/><path d="M0 0 11.2584 25.1686" stroke="#00B0F0" stroke-width="23" stroke-linecap="round" stroke-miterlimit="8" fill="none" fill-rule="evenodd" transform="matrix(-1 0 0 1 181.036 31.2228)"/></g></g><path d="M0 0 11.2588 22.5168" stroke="#00B0F0" stroke-width="22.9167" stroke-linecap="round" stroke-miterlimit="8" fill="none" fill-rule="evenodd" transform="matrix(-1 0 0 1 3351.76 1206.5)"/><path d="M0 0 11.2588 22.5172" stroke="#00B0F0" stroke-width="22.9167" stroke-linecap="round" stroke-miterlimit="8" fill="none" fill-rule="evenodd" transform="matrix(-1 0 0 1 3139.76 1206.5)"/><path d="M0 0 9.3085 22.5172" stroke="#00B0F0" stroke-width="22.9167" stroke-linecap="round" stroke-miterlimit="8" fill="none" fill-rule="evenodd" transform="matrix(-1 0 0 1 3311.81 1322.5)"/><path d="M0 0 11.2584 25.1686" stroke="#00B0F0" stroke-width="22.9167" stroke-linecap="round" stroke-miterlimit="8" fill="none" fill-rule="evenodd" transform="matrix(-1 0 0 1 3224.76 1262.5)"/><path d="M0 0 9.77224 26.9738" stroke="#00B0F0" stroke-width="22.9167" stroke-linecap="round" stroke-miterlimit="8" fill="none" fill-rule="evenodd" transform="matrix(-1 0 0 1 3199.27 1380.5)"/><path d="M0 0 9.77224 26.9738" stroke="#00B0F0" stroke-width="22.9167" stroke-linecap="round" stroke-miterlimit="8" fill="none" fill-rule="evenodd" transform="matrix(-1 0 0 1 3122.27 1328.5)"/><path d="M0 0 11.2584 25.1686" stroke="#00B0F0" stroke-width="22.9167" stroke-linecap="round" stroke-miterlimit="8" fill="none" fill-rule="evenodd" transform="matrix(-1 0 0 1 3261.76 1182.5)"/><g filter="url(#fx1)" transform="translate(3187 902)"><g><path d="M20.2773 119.723C20.2773 64.4942 65.0488 19.7227 120.277 19.7227 175.506 19.7227 220.277 64.4942 220.277 119.723 220.277 174.951 175.506 219.723 120.277 219.723 65.0488 219.723 20.2773 174.951 20.2773 119.723Z" fill="#FF0000" fill-rule="evenodd"/></g></g><path d="M3217 1012C3217 956.771 3261.77 912 3317 912 3372.23 912 3417 956.771 3417 1012 3417 1067.23 3372.23 1112 3317 1112 3261.77 1112 3217 1067.23 3217 1012Z" fill="url(#fill3)" fill-rule="evenodd"/><g filter="url(#fx2)" transform="translate(3032 956)"><g><path d="M172.389 19.7227C202.929 19.7227 229.131 38.2811 240.323 64.7305L242.369 71.3153 249.652 72.0491C277.033 77.6492 297.629 101.864 297.629 130.887L297.043 136.701 303.08 134.828C306.992 134.028 311.042 133.608 315.19 133.608 348.375 133.608 375.277 160.496 375.277 193.665 375.277 226.834 348.375 253.723 315.19 253.723L313.009 253.503 313.009 253.723 94.0055 253.723 90.0859 253.723 90.0859 253.328 79.1466 252.225C45.55 245.354 20.2773 215.642 20.2773 180.03 20.2773 139.331 53.2865 106.338 94.0055 106.338L100.026 106.945 98.661 93.4148C98.661 52.7157 131.67 19.7227 172.389 19.7227Z" fill="#FFFFFF" fill-rule="evenodd"/></g></g><path d="M3214.11 966C3244.65 966 3270.85 984.558 3282.05 1011.01L3284.09 1017.59 3291.37 1018.33C3318.76 1023.93 3339.35 1048.14 3339.35 1077.16L3338.77 1082.98 3344.8 1081.1C3348.72 1080.3 3352.76 1079.88 3356.91 1079.88 3390.1 1079.88 3417 1106.77 3417 1139.94 3417 1173.11 3390.1 1200 3356.91 1200L3354.73 1199.78 3354.73 1200 3135.73 1200 3131.81 1200 3131.81 1199.6 3120.87 1198.5C3087.27 1191.63 3062 1161.92 3062 1126.31 3062 1085.61 3095.01 1052.62 3135.73 1052.62L3141.75 1053.22 3140.38 1039.69C3140.38 998.993 3173.39 966 3214.11 966Z" fill="#FFFFFF" fill-rule="evenodd"/></g></svg>