<svg width="572" height="572" xmlns="http://www.w3.org/2000/svg" xmlns:xlink="http://www.w3.org/1999/xlink" xml:space="preserve" overflow="hidden"><defs><filter id="fx0" x="-10%" y="-10%" width="120%" height="120%" filterUnits="userSpaceOnUse" primitiveUnits="userSpaceOnUse"><feComponentTransfer color-interpolation-filters="sRGB"><feFuncR type="discrete" tableValues="0 0"/><feFuncG type="discrete" tableValues="0 0"/><feFuncB type="discrete" tableValues="0 0"/><feFuncA type="linear" slope="0.4" intercept="0"/></feComponentTransfer><feGaussianBlur stdDeviation="6.11111 6.11111"/></filter><filter id="fx1" x="-10%" y="-10%" width="120%" height="120%" filterUnits="userSpaceOnUse" primitiveUnits="userSpaceOnUse"><feComponentTransfer color-interpolation-filters="sRGB"><feFuncR type="discrete" tableValues="0 0"/><feFuncG type="discrete" tableValues="0 0"/><feFuncB type="discrete" tableValues="0 0"/><feFuncA type="linear" slope="0.4" intercept="0"/></feComponentTransfer><feGaussianBlur stdDeviation="6.11111 6.11111"/></filter><filter id="fx2" x="-10%" y="-10%" width="120%" height="120%" filterUnits="userSpaceOnUse" primitiveUnits="userSpaceOnUse"><feComponentTransfer color-interpolation-filters="sRGB"><feFuncR type="discrete" tableValues="0 0"/><feFuncG type="discrete" tableValues="0 0"/><feFuncB type="discrete" tableValues="0 0"/><feFuncA type="linear" slope="0.4" intercept="0"/></feComponentTransfer><feGaussianBlur stdDeviation="6.11111 6.11111"/></filter><clipPath id="clip3"><rect x="-3" y="-3" width="145" height="300"/></clipPath><clipPath id="clip4"><rect x="0" y="0" width="139" height="294"/></clipPath></defs><g transform="translate(-3302 -1491)"><g clip-path="url(#clip3)" filter="url(#fx0)" transform="translate(3469 1747)"><g clip-path="url(#clip4)"><path d="M60.7591 0 92.2287 67.1573 79.2478 75.077 118.886 132.625 105.905 142.234 154.91 238.585 71.8036 164.745 87.6531 154.495 36.0165 107.198 54.5196 92.5843 0 42.9674Z" fill="#FFD966" fill-rule="evenodd" transform="matrix(-0.965926 0.258819 0.258819 0.965926 107.42 3.87158)"/></g></g><path d="M60.7591 0 92.2287 67.1573 79.2478 75.077 118.886 132.625 105.905 142.234 154.91 238.585 71.8036 164.745 87.6531 154.495 36.0165 107.198 54.5196 92.5843 0 42.9674Z" fill="#FFD966" fill-rule="evenodd" transform="matrix(-0.965926 0.258819 0.258819 0.965926 3586.14 1741.15)"/><g filter="url(#fx1)" transform="translate(3431 1548)"><g><path d="M161.248 19.7225C189.551 19.7225 213.835 36.9327 224.207 61.4606L226.103 67.5671 232.853 68.2475C258.228 73.4408 277.316 95.8962 277.316 122.811L276.773 128.202 282.368 126.465C285.993 125.723 289.746 125.334 293.591 125.334 324.346 125.334 349.277 150.269 349.277 181.028 349.277 211.788 324.346 236.723 293.591 236.723L291.569 236.519 291.569 236.723 88.6055 236.723 84.9729 236.723 84.9729 236.356 74.8349 235.334C43.6988 228.962 20.2771 201.409 20.2771 168.384 20.2771 130.642 50.8687 100.046 88.6055 100.046L94.1848 100.608 92.92 88.0611C92.92 50.3186 123.512 19.7225 161.248 19.7225Z" fill="#767171" fill-rule="evenodd"/></g></g><path d="M3601.97 1558C3630.27 1558 3654.56 1575.21 3664.93 1599.74L3666.83 1605.84 3673.58 1606.52C3698.95 1611.72 3718.04 1634.17 3718.04 1661.09L3717.5 1666.48 3723.09 1664.74C3726.72 1664 3730.47 1663.61 3734.31 1663.61 3765.07 1663.61 3790 1688.55 3790 1719.31 3790 1750.06 3765.07 1775 3734.31 1775L3732.29 1774.8 3732.29 1775 3529.33 1775 3525.7 1775 3525.7 1774.63 3515.56 1773.61C3484.42 1767.24 3461 1739.69 3461 1706.66 3461 1668.92 3491.59 1638.32 3529.33 1638.32L3534.91 1638.89 3533.64 1626.34C3533.64 1588.6 3564.23 1558 3601.97 1558Z" fill="#767171" fill-rule="evenodd"/><g filter="url(#fx2)" transform="translate(3355 1565)"><g><path d="M177.102 19.7228C208.588 19.7228 235.602 38.8364 247.142 66.077L249.25 72.8588 256.759 73.6145C284.988 79.3822 306.223 104.321 306.223 134.212L305.619 140.2 311.843 138.271C315.876 137.447 320.052 137.014 324.328 137.014 358.542 137.014 386.277 164.707 386.277 198.869 386.277 233.03 358.542 260.723 324.328 260.723L322.079 260.496 322.079 260.723 96.2899 260.723 92.2488 260.723 92.2488 260.316 80.9706 259.181C46.3328 252.104 20.2771 221.503 20.2771 184.826 20.2771 142.909 54.3091 108.929 96.2899 108.929L102.497 109.554 101.09 95.6194C101.09 53.7027 135.122 19.7228 177.102 19.7228Z" fill="#FFFFFF" fill-rule="evenodd"/></g></g><path d="M3541.83 1575C3573.31 1575 3600.33 1594.11 3611.86 1621.35L3613.97 1628.14 3621.48 1628.89C3649.71 1634.66 3670.95 1659.6 3670.95 1689.49L3670.34 1695.48 3676.57 1693.55C3680.6 1692.72 3684.77 1692.29 3689.05 1692.29 3723.26 1692.29 3751 1719.98 3751 1754.15 3751 1788.31 3723.26 1816 3689.05 1816L3686.8 1815.77 3686.8 1816 3461.01 1816 3456.97 1816 3456.97 1815.59 3445.69 1814.46C3411.06 1807.38 3385 1776.78 3385 1740.1 3385 1698.19 3419.03 1664.21 3461.01 1664.21L3467.22 1664.83 3465.81 1650.9C3465.81 1608.98 3499.84 1575 3541.83 1575Z" fill="#FFFFFF" fill-rule="evenodd"/></g></svg>