<svg width="572" height="572" xmlns="http://www.w3.org/2000/svg" xmlns:xlink="http://www.w3.org/1999/xlink" xml:space="preserve" overflow="hidden"><g transform="translate(-3677 -681)"><path d="M3902 967C3902 933.311 3929.31 906 3963 906 3996.69 906 4024 933.311 4024 967 4024 1000.69 3996.69 1028 3963 1028 3929.31 1028 3902 1000.69 3902 967Z" stroke="#5DD2ED" stroke-width="45.8333" stroke-miterlimit="8" fill="none" fill-rule="evenodd"/><path d="M4024 967 4194.44 967" stroke="#5DD2ED" stroke-width="32.0833" stroke-linecap="round" stroke-miterlimit="8" fill="none" fill-rule="evenodd"/><path d="M0 0 109.17 75.8148" stroke="#5DD2ED" stroke-width="32.0833" stroke-linecap="round" stroke-miterlimit="8" fill="none" fill-rule="evenodd" transform="matrix(1 0 0 -1 4086 964.815)"/><path d="M4086 965 4191.7 1038.41" stroke="#5DD2ED" stroke-width="32.0833" stroke-linecap="round" stroke-miterlimit="8" fill="none" fill-rule="evenodd"/><path d="M3966 912.357 3966 728" stroke="#5DD2ED" stroke-width="32.0833" stroke-linecap="round" stroke-miterlimit="8" fill="none" fill-rule="evenodd"/><path d="M0 0 109.17 75.8148" stroke="#5DD2ED" stroke-width="32.0833" stroke-linecap="round" stroke-miterlimit="8" fill="none" fill-rule="evenodd" transform="matrix(-1.83697e-16 -1 -1 1.83697e-16 3963.82 836.169)"/><path d="M3965 836.704 4038.41 731" stroke="#5DD2ED" stroke-width="32.0833" stroke-linecap="round" stroke-miterlimit="8" fill="none" fill-rule="evenodd"/><path d="M3904.36 961 3720 961" stroke="#5DD2ED" stroke-width="32.0833" stroke-linecap="round" stroke-miterlimit="8" fill="none" fill-rule="evenodd"/><path d="M0 0 109.17 75.8148" stroke="#5DD2ED" stroke-width="32.0833" stroke-linecap="round" stroke-miterlimit="8" fill="none" fill-rule="evenodd" transform="matrix(-1 0 0 1 3828.17 963)"/><path d="M3827.7 962.408 3722 889" stroke="#5DD2ED" stroke-width="32.0833" stroke-linecap="round" stroke-miterlimit="8" fill="none" fill-rule="evenodd"/><path d="M3963 1028 3963 1212.36" stroke="#5DD2ED" stroke-width="32.0833" stroke-linecap="round" stroke-miterlimit="8" fill="none" fill-rule="evenodd"/><path d="M0 0 109.17 75.8148" stroke="#5DD2ED" stroke-width="32.0833" stroke-linecap="round" stroke-miterlimit="8" fill="none" fill-rule="evenodd" transform="matrix(1.83697e-16 1 1 -1.83697e-16 3965 1104)"/><path d="M3964.41 1104 3891 1209.7" stroke="#5DD2ED" stroke-width="32.0833" stroke-linecap="round" stroke-miterlimit="8" fill="none" fill-rule="evenodd"/></g></svg>