<svg width="1250" height="1250" xmlns="http://www.w3.org/2000/svg" xmlns:xlink="http://www.w3.org/1999/xlink" xml:space="preserve" overflow="hidden"><g transform="translate(-1198 -459)"><path d="M1232.5 1084C1232.5 757.876 1496.88 493.5 1823 493.5 2149.12 493.5 2413.5 757.876 2413.5 1084 2413.5 1410.12 2149.12 1674.5 1823 1674.5 1496.88 1674.5 1232.5 1410.12 1232.5 1084Z" stroke="#AFABAB" stroke-width="68.75" stroke-miterlimit="8" fill="none" fill-rule="evenodd"/><path d="M1723 1480C1723 1425.32 1767.55 1381 1822.5 1381 1877.45 1381 1922 1425.32 1922 1480 1922 1534.68 1877.45 1579 1822.5 1579 1767.55 1579 1723 1534.68 1723 1480Z" fill="#AFABAB" fill-rule="evenodd"/><path d="M0 0 0.000360892 535.408" stroke="#AFABAB" stroke-width="91.6667" stroke-linecap="round" stroke-miterlimit="8" fill="none" fill-rule="evenodd" transform="matrix(1 0 0 -1 1823 1380.41)"/><path d="M0 0 0.000360892 114.49" stroke="#AFABAB" stroke-width="91.6667" stroke-linecap="round" stroke-miterlimit="8" fill="none" fill-rule="evenodd" transform="matrix(1 0 0 -1 1823 636.49)"/><path d="M0 0 91.7522 0.000360892" stroke="#AFABAB" stroke-width="91.6667" stroke-linecap="round" stroke-miterlimit="8" fill="none" fill-rule="evenodd" transform="matrix(-1 0 0 1 2374.75 1087)"/><path d="M0 0 91.7522 0.000360892" stroke="#AFABAB" stroke-width="91.6667" stroke-linecap="round" stroke-miterlimit="8" fill="none" fill-rule="evenodd" transform="matrix(-1 0 0 1 1357.75 1087)"/><path d="M0 0 91.7522 0.000360892" stroke="#AFABAB" stroke-width="91.6667" stroke-linecap="round" stroke-miterlimit="8" fill="none" fill-rule="evenodd" transform="matrix(-0.707107 0.707107 0.707107 0.707107 2214.55 691.872)"/><path d="M1426.66 691.872 1491.54 756.751" stroke="#AFABAB" stroke-width="91.6667" stroke-linecap="round" stroke-miterlimit="8" fill="none" fill-rule="evenodd"/></g></svg>