<svg width="720" height="720" xmlns="http://www.w3.org/2000/svg" xmlns:xlink="http://www.w3.org/1999/xlink" xml:space="preserve" overflow="hidden"><g transform="translate(-280 0)"><path d="M1000 335.454 868.51 335.454 919.172 284.791 884.458 250.079 799.086 335.454 682.512 335.454 740.799 234.502 857.426 203.252 844.719 155.832 775.512 174.378 841.257 60.5039 798.743 35.9592 732.998 149.832 714.453 80.6259 667.034 93.3328 698.286 209.956 640 310.909 581.717 209.959 612.963 93.33 565.546 80.6259 547.002 149.832 481.257 35.9592 438.743 60.5039 504.488 174.376 435.281 155.834 422.577 203.254 539.2 234.501 597.488 335.454 480.917 335.454 395.538 250.078 360.827 284.79 411.49 335.454 280 335.454 280 384.546 411.49 384.546 360.827 435.21 395.538 469.922 480.917 384.546 597.488 384.546 539.201 485.498 422.571 516.748 435.278 564.168 504.49 545.621 438.743 659.496 481.257 684.041 547 570.168 565.546 639.377 612.963 626.67 581.712 510.044 640 409.091 698.286 510.043 667.034 626.671 714.453 639.375 732.997 570.167 798.743 684.041 841.257 659.496 775.512 545.622 844.719 564.168 857.423 516.748 740.8 485.499 682.512 384.546 799.083 384.546 884.461 469.922 919.172 435.21 868.509 384.546 1000 384.546Z" fill="#AFABAB"/></g></svg>