<svg width="492" height="493" xmlns="http://www.w3.org/2000/svg" xmlns:xlink="http://www.w3.org/1999/xlink" xml:space="preserve" overflow="hidden"><defs><clipPath id="clip0"><rect x="1290" y="808" width="492" height="493"/></clipPath></defs><g clip-path="url(#clip0)" transform="translate(-1290 -808)"><path d="M1782 1054.5 1682.73 1089.88 1682.73 1019.13ZM1709.93 880.193 1664.71 975.554 1614.79 925.527ZM1536 808 1571.3 907.473 1500.7 907.473ZM1362.05 880.193 1457.21 925.527 1407.29 975.554ZM1290 1054.5 1389.27 1019.13 1389.27 1089.88ZM1362.05 1228.78 1407.29 1133.45 1457.21 1183.47ZM1536 1301 1500.7 1201.53 1571.3 1201.53ZM1709.93 1228.78 1614.79 1183.47 1664.71 1133.45ZM1413 1054.5C1413 986.431 1468.07 931.25 1536 931.25 1603.93 931.25 1659 986.431 1659 1054.5 1659 1122.57 1603.93 1177.75 1536 1177.75 1468.07 1177.75 1413 1122.57 1413 1054.5Z" fill="#A5A5A5" fill-rule="evenodd"/></g></svg>