<svg width="720" height="720" xmlns="http://www.w3.org/2000/svg" xmlns:xlink="http://www.w3.org/1999/xlink" xml:space="preserve" overflow="hidden"><g transform="translate(-280 0)"><path d="M664 500.129 664 280 616.001 280 616.001 500.127C588.069 510.034 568.001 536.711 568.001 568 568.001 607.703 600.3 640 640.001 640 679.704 640 712.001 607.703 712.001 568 712 536.712 691.934 510.036 664 500.129ZM640 592C626.766 592 616 581.235 616 568 616 554.764 626.766 543.999 640 543.999 653.234 543.999 664 554.764 664 568 664 581.235 653.234 592 640 592Z" fill="#AFABAB"/><path d="M744.001 457.156 744.001 104.001C744.001 46.6537 697.345 0 640 0 582.655 0 535.999 46.6537 535.999 104.001L535.999 457.18C505.356 485.883 488 525.644 488 568.001 488 651.812 556.188 720 640 720 723.812 720 792 651.812 792 568 792 525.627 774.644 485.857 744.001 457.156ZM640 672C582.655 672 535.999 625.347 535.999 568 535.999 536.304 550.221 506.72 575.016 486.835L584 479.631 584 104.001C584 73.1222 609.122 48.0009 640 48.0009 670.878 48.0009 696 73.1222 696 104.001L696 479.61 704.986 486.814C729.779 506.696 744.001 536.286 744.001 568 744.001 625.345 697.345 672 640 672Z" fill="#AFABAB"/></g></svg>