<svg width="1829" height="1829" xmlns="http://www.w3.org/2000/svg" xmlns:xlink="http://www.w3.org/1999/xlink" xml:space="preserve" overflow="hidden"><g transform="translate(-273 -321)"><g><g><g><path d="M1188 2115C823.625 2115 528 1819.38 528 1455 528 1141.5 975.562 553.344 1100.69 395.219 1121.31 369.438 1151.91 355 1184.91 355L1191.09 355C1224.09 355 1254.69 369.438 1275.31 395.219 1400.44 553.344 1848 1141.5 1848 1455 1848 1819.38 1552.38 2115 1188 2115ZM858 1510C858 1479.75 833.25 1455 803 1455 772.75 1455 748 1479.75 748 1510 748 1722.78 920.219 1895 1133 1895 1163.25 1895 1188 1870.25 1188 1840 1188 1809.75 1163.25 1785 1133 1785 981.062 1785 858 1661.94 858 1510Z" fill="#AFABAB"/></g></g></g></g></svg>