<svg width="998" height="999" xmlns="http://www.w3.org/2000/svg" xmlns:xlink="http://www.w3.org/1999/xlink" xml:space="preserve" overflow="hidden"><g transform="translate(-1766 -239)"><path d="M0 0C97.346 0 194.692 117.302 194.692 234.604 194.692 351.907 292.038 469.209 389.384 469.209" stroke="#AFABAB" stroke-width="68.75" stroke-linecap="round" stroke-miterlimit="8" fill="none" fill-rule="evenodd" transform="matrix(0.707107 0.707107 0.707107 -0.707107 1823.55 628.929)"/><path d="M0 0C97.346 0 194.692 117.302 194.692 234.604 194.692 351.907 292.038 469.209 389.384 469.209" stroke="#AFABAB" stroke-width="68.75" stroke-linecap="round" stroke-miterlimit="8" fill="none" fill-rule="evenodd" transform="matrix(0.707107 0.707107 0.707107 -0.707107 1961.22 766.597)"/><path d="M0 0C97.346 0 194.692 117.302 194.692 234.604 194.692 351.907 292.038 469.209 389.384 469.209" stroke="#AFABAB" stroke-width="68.75" stroke-linecap="round" stroke-miterlimit="8" fill="none" fill-rule="evenodd" transform="matrix(0.707107 0.707107 0.707107 -0.707107 2098.88 904.265)"/></g></svg>