<svg width="1346" height="1144" xmlns="http://www.w3.org/2000/svg" xmlns:xlink="http://www.w3.org/1999/xlink" xml:space="preserve" overflow="hidden"><defs><filter id="fx0" x="-10%" y="-10%" width="120%" height="120%" filterUnits="userSpaceOnUse" primitiveUnits="userSpaceOnUse"><feComponentTransfer color-interpolation-filters="sRGB"><feFuncR type="discrete" tableValues="0 0"/><feFuncG type="discrete" tableValues="0 0"/><feFuncB type="discrete" tableValues="0 0"/><feFuncA type="linear" slope="0.4" intercept="0"/></feComponentTransfer><feGaussianBlur stdDeviation="6.03129 6.03129"/></filter><filter id="fx1" x="-10%" y="-10%" width="120%" height="120%" filterUnits="userSpaceOnUse" primitiveUnits="userSpaceOnUse"><feComponentTransfer color-interpolation-filters="sRGB"><feFuncR type="discrete" tableValues="0 0"/><feFuncG type="discrete" tableValues="0 0"/><feFuncB type="discrete" tableValues="0 0"/><feFuncA type="linear" slope="0.4" intercept="0"/></feComponentTransfer><feGaussianBlur stdDeviation="6.03129 6.03129"/></filter><filter id="fx2" x="-10%" y="-10%" width="120%" height="120%" filterUnits="userSpaceOnUse" primitiveUnits="userSpaceOnUse"><feComponentTransfer color-interpolation-filters="sRGB"><feFuncR type="discrete" tableValues="0 0"/><feFuncG type="discrete" tableValues="0 0"/><feFuncB type="discrete" tableValues="0 0"/><feFuncA type="linear" slope="0.4" intercept="0"/></feComponentTransfer><feGaussianBlur stdDeviation="3.61063 3.61063"/></filter><clipPath id="clip3"><rect x="-204" y="-60" width="1346" height="1144"/></clipPath><clipPath id="clip4"><rect x="336" y="284" width="174" height="492"/></clipPath><clipPath id="clip5"><rect x="342" y="284" width="175" height="492"/></clipPath><clipPath id="clip6"><rect x="157" y="144" width="463" height="193"/></clipPath></defs><g clip-path="url(#clip3)" transform="translate(204 60)"><g clip-path="url(#clip4)" filter="url(#fx0)" transform="translate(-205 -61)"><g><path d="M149.248 66.1323C149.248 68.8771 149.076 71.2359 148.733 73.2087 148.39 75.1815 147.833 76.7255 147.061 77.8406 146.289 78.9556 145.388 79.8563 144.359 80.5425 143.33 81.2287 142.3 81.5718 141.271 81.5718 138.183 82.258 135.481 82.644 133.165 82.7297 130.849 82.8155 128.062 82.8584 124.802 82.8584 113.308 82.8584 103.873 81.0142 96.4966 77.3259 89.1199 73.6376 83.2873 68.148 78.9985 60.8572 74.7098 53.5663 71.7934 44.4313 70.2495 33.4521 68.7056 22.473 67.9336 7.89127 67.9336-10.293L67.9336-63.3018C67.9336-74.9671 67.2045-84.4023 65.7463-91.6074 64.2882-98.8125 62.058-105.117 59.0559-110.521 56.0538-115.925 52.1939-120.299 47.4763-123.644 42.7587-126.989 37.0547-129.005 30.3643-129.691 28.8203-130.034 27.5337-130.506 26.5044-131.107 25.4751-131.707 24.6602-132.608 24.0598-133.809 23.4594-135.009 22.9876-136.596 22.6445-138.569 22.3014-140.542 22.1299-142.815 22.1299-145.388 22.1299-148.133 22.2585-150.449 22.5159-152.336 22.7732-154.223 23.2021-155.81 23.8025-157.096 24.4029-158.383 25.2178-159.284 26.2471-159.798 27.2764-160.313 28.563-160.742 30.1069-161.085 42.8016-162.457 52.2797-168.59 58.5413-179.484 64.8028-190.377 67.9336-206.46 67.9336-227.732L67.9336-269.161C67.9336-287.174 68.7484-301.67 70.3782-312.649 72.0079-323.628 75.01-332.806 79.3845-340.183 83.759-347.559 89.5917-353.092 96.8826-356.78 104.173-360.468 113.48-362.312 124.802-362.312 128.062-362.312 130.764-362.27 132.908-362.184 135.052-362.098 137.668-361.712 140.756-361.026 141.957-361.026 143.115-360.726 144.23-360.125 145.345-359.525 146.289-358.624 147.061-357.423 147.833-356.222 148.39-354.636 148.733-352.663 149.076-350.69 149.248-348.331 149.248-345.586 149.248-342.67 149.076-340.225 148.733-338.253 148.39-336.28 147.833-334.607 147.061-333.235 146.289-331.862 145.345-330.919 144.23-330.404 143.115-329.89 141.871-329.632 140.499-329.632L129.949-329.375C125.832-329.375 122.315-328.646 119.398-327.188 116.482-325.73 114.123-322.899 112.322-318.696 110.521-314.493 109.148-308.703 108.205-301.327 107.261-293.95 106.79-282.628 106.79-267.36L106.79-229.79C106.79-217.267 106.103-206.588 104.731-197.754 103.359-188.919 100.914-180.985 97.3972-173.951 93.8804-166.918 89.2057-160.87 83.373-155.81 77.5404-150.749 70.1637-147.275 61.2432-145.388 70.1637-143.673 77.5404-140.285 83.373-135.224 89.2057-130.163 93.8804-124.073 97.3972-116.954 100.914-109.835 103.359-101.9 104.731-93.1514 106.103-84.4023 106.79-73.6805 106.79-60.9858L106.79-12.0942C106.79 3.00211 107.218 14.2386 108.076 21.6152 108.934 28.9919 110.263 34.7817 112.065 38.9846 113.866 43.1876 116.182 46.061 119.012 47.605 121.843 49.1489 125.231 49.9209 129.177 49.9209L139.984 50.1782C141.528 50.1782 142.901 50.4355 144.102 50.9502 145.302 51.4648 146.289 52.3655 147.061 53.6521 147.833 54.9387 148.39 56.5684 148.733 58.5413 149.076 60.5141 149.248 63.0444 149.248 66.1323Z" fill="#0070C0" transform="matrix(1 0 0 1 336.56 671)"/></g></g><text fill="#0070C0" font-family="Calibri,Calibri_MSFontService,sans-serif" font-weight="400" font-size="527" transform="matrix(1 0 0 1 125.209 604)">{</text><g clip-path="url(#clip5)" filter="url(#fx1)" transform="translate(304 -61)"><g><path d="M157.74-145.903C157.74-143.158 157.611-140.842 157.354-138.955 157.096-137.068 156.668-135.524 156.067-134.323 155.467-133.122 154.652-132.222 153.623-131.621 152.593-131.021 151.392-130.635 150.02-130.463 142.815-129.777 136.811-127.247 132.007-122.872 127.204-118.498 123.301-112.88 120.299-106.018 117.297-99.1556 115.195-91.4788 113.995-82.9871 112.794-74.4954 112.193-64.0737 112.193-51.7222L112.193-10.293C112.193 7.71972 111.336 22.2157 109.62 33.1948 107.905 44.174 104.902 53.3519 100.614 60.7285 96.325 68.1051 90.4923 73.6376 83.1157 77.3259 75.7391 81.0142 66.4754 82.8584 55.3247 82.8584 52.0653 82.8584 49.3205 82.7726 47.0903 82.6011 44.8602 82.4295 42.0296 82.0864 38.5986 81.5718 37.3978 81.5718 36.2827 81.2287 35.2534 80.5425 34.2241 79.8563 33.3664 78.9556 32.6802 77.8406 31.994 76.7255 31.3936 75.1815 30.8789 73.2087 30.3643 71.2359 30.1069 68.8771 30.1069 66.1323 30.1069 63.216 30.3643 60.7714 30.8789 58.7986 31.3936 56.8258 32.0369 55.1531 32.8088 53.7808 33.5808 52.4084 34.4814 51.4648 35.5107 50.9502 36.54 50.4355 37.6551 50.1782 38.856 50.1782L49.9209 49.9209C54.0381 49.9209 57.5548 49.1489 60.4712 47.605 63.3875 46.061 65.7892 43.2305 67.6763 39.1133 69.5633 34.9961 70.9357 29.2492 71.7934 21.8726 72.6512 14.4959 73.0801 3.17366 73.0801-12.0942L73.0801-49.6636C73.0801-62.3582 73.8092-73.6805 75.2673-83.6304 76.7255-93.5802 79.1701-102.844 82.6011-111.421 86.0321-119.999 90.7068-127.375 96.6252-133.551 102.544-139.727 109.877-143.758 118.626-145.645 109.877-147.361 102.544-150.106 96.6252-153.88 90.7068-157.654 86.0321-162.414 82.6011-168.161 79.1701-173.908 76.7255-180.556 75.2673-188.104 73.8092-195.652 73.0801-205.774 73.0801-218.468L73.0801-267.36C73.0801-282.628 72.6512-293.907 71.7934-301.198 70.9357-308.489 69.6062-314.236 67.8049-318.439 66.0037-322.642 63.6877-325.515 60.8572-327.059 58.0266-328.603 54.6385-329.375 50.6929-329.375L40.3999-329.632C38.5129-329.632 36.926-329.89 35.6394-330.404 34.3528-330.919 33.2806-331.82 32.4228-333.106 31.5651-334.393 30.9647-336.023 30.6216-337.995 30.2785-339.968 30.1069-342.498 30.1069-345.586 30.1069-348.331 30.3214-350.69 30.7502-352.663 31.1791-354.636 31.7795-356.222 32.5515-357.423 33.3235-358.624 34.267-359.525 35.3821-360.125 36.4971-360.726 37.8267-361.026 39.3706-361.026 42.2869-361.712 44.8602-362.098 47.0903-362.184 49.3205-362.27 52.0653-362.312 55.3247-362.312 66.647-362.312 75.9964-360.468 83.373-356.78 90.7497-353.092 96.5823-347.602 100.871-340.311 105.16-333.02 108.119-323.885 109.749-312.906 111.378-301.927 112.193-287.345 112.193-269.161L112.193-216.152C112.193-204.487 112.922-195.695 114.381-189.777 115.839-183.858 118.069-178.926 121.071-174.98 124.073-171.035 127.933-167.99 132.651-165.845 137.368-163.701 143.072-162.2 149.763-161.342 151.135-161.342 152.336-160.999 153.365-160.313 154.395-159.627 155.252-158.64 155.938-157.354 156.625-156.067 157.096-154.523 157.354-152.722 157.611-150.921 157.74-148.648 157.74-145.903Z" fill="#0070C0" transform="matrix(1 0 0 1 336.883 671)"/></g></g><text fill="#0070C0" font-family="Calibri,Calibri_MSFontService,sans-serif" font-weight="400" font-size="527" transform="matrix(1 0 0 1 634.532 604)">}</text><g clip-path="url(#clip6)" filter="url(#fx2)" transform="translate(84 236)"><g><path d="M152.094-80.1641C152.094-67.4896 150.6-56.0664 147.613-45.8945 144.626-35.7227 140.166-27.0644 134.232-19.9199 128.299-12.7754 120.852-7.28581 111.891-3.45117 102.93 0.383463 92.4753 2.30078 80.5273 2.30078 68.7409 2.30078 58.5488 0.544922 49.9512-2.9668 41.3535-6.47851 34.2493-11.5846 28.6387-18.2852 23.028-24.9857 18.8503-33.3008 16.1055-43.2305 13.3607-53.1602 11.9883-64.5833 11.9883-77.5 11.9883-89.8515 13.4818-101.073 16.4687-111.164 19.4557-121.255 23.9362-129.833 29.9102-136.896 35.8841-143.96 43.3516-149.409 52.3125-153.244 61.2734-157.079 71.7279-158.996 83.6758-158.996 95.22-158.996 105.271-157.26 113.828-153.789 122.385-150.318 129.51-145.252 135.201-138.592 140.893-131.932 145.131-123.697 147.916-113.889 150.701-104.08 152.094-92.8385 152.094-80.1641ZM130.055-78.7109C130.055-87.5911 129.269-95.8457 127.696-103.475 126.124-111.104 123.503-117.723 119.835-123.334 116.166-128.945 111.268-133.324 105.141-136.473 99.0134-139.621 91.4346-141.195 82.4043-141.195 73.374-141.195 65.7949-139.5 59.667-136.109 53.5392-132.719 48.5605-128.198 44.7309-122.547 40.9013-116.896 38.16-110.296 36.5069-102.748 34.8539-95.1999 34.0273-87.2682 34.0273-78.9531 34.0273-69.75 34.7933-61.2734 36.3253-53.5234 37.8572-45.7734 40.4374-39.0931 44.0658-33.4824 47.6942-27.8717 52.5522-23.5124 58.6396-20.4043 64.7271-17.2962 72.3661-15.7422 81.5566-15.7422 90.6677-15.7422 98.3275-17.4375 104.536-20.8281 110.745-24.2187 115.744-28.8001 119.533-34.5723 123.322-40.3444 126.023-47.0247 127.636-54.6133 129.248-62.2018 130.055-70.2344 130.055-78.7109ZM315.948-80.1641C315.948-67.4896 314.454-56.0664 311.467-45.8945 308.48-35.7227 304.02-27.0644 298.087-19.9199 292.153-12.7754 284.706-7.28581 275.745-3.45117 266.784 0.383463 256.329 2.30078 244.382 2.30078 232.595 2.30078 222.403 0.544922 213.805-2.9668 205.208-6.47851 198.104-11.5846 192.493-18.2852 186.882-24.9857 182.704-33.3008 179.96-43.2305 177.215-53.1602 175.842-64.5833 175.842-77.5 175.842-89.8515 177.336-101.073 180.323-111.164 183.31-121.255 187.79-129.833 193.764-136.896 199.738-143.96 207.206-149.409 216.167-153.244 225.128-157.079 235.582-158.996 247.53-158.996 259.074-158.996 269.125-157.26 277.682-153.789 286.24-150.318 293.364-145.252 299.055-138.592 304.747-131.932 308.985-123.697 311.77-113.889 314.555-104.08 315.948-92.8385 315.948-80.1641ZM293.909-78.7109C293.909-87.5911 293.123-95.8457 291.55-103.475 289.978-111.104 287.357-117.723 283.689-123.334 280.02-128.945 275.122-133.324 268.995-136.473 262.868-139.621 255.289-141.195 246.258-141.195 237.228-141.195 229.649-139.5 223.521-136.109 217.393-132.719 212.415-128.198 208.585-122.547 204.755-116.896 202.014-110.296 200.361-102.748 198.708-95.1999 197.882-87.2682 197.882-78.9531 197.882-69.75 198.647-61.2734 200.179-53.5234 201.711-45.7734 204.292-39.0931 207.92-33.4824 211.548-27.8717 216.406-23.5124 222.494-20.4043 228.581-17.2962 236.22-15.7422 245.411-15.7422 254.522-15.7422 262.182-17.4375 268.39-20.8281 274.599-24.2187 279.598-28.8001 283.387-34.5723 287.176-40.3444 289.877-47.0247 291.49-54.6133 293.102-62.2018 293.909-70.2344 293.909-78.7109ZM444.806-110.801C444.806-102.97 443.514-95.9062 440.931-89.6094 438.348-83.3125 434.654-77.944 429.851-73.5039 425.047-69.0638 419.154-65.6328 412.171-63.2109 405.188-60.7891 396.853-59.5781 387.165-59.5781L369.365-59.5781 369.365-3.14844C369.365-2.5026 369.183-1.9375 368.82-1.45312 368.456-0.96875 367.891-0.585286 367.124-0.302734 366.357-0.0201823 365.308 0.222005 363.976 0.423828 362.644 0.625651 360.969 0.726562 358.951 0.726562 356.932 0.726562 355.257 0.625651 353.925 0.423828 352.593 0.222005 351.523-0.0201823 350.716-0.302734 349.909-0.585286 349.344-0.96875 349.021-1.45312 348.698-1.9375 348.536-2.5026 348.536-3.14844L348.536-147.734C348.536-150.964 349.384-153.264 351.079-154.637 352.775-156.009 354.672-156.695 356.771-156.695L390.314-156.695C393.704-156.695 396.954-156.554 400.062-156.271 403.17-155.989 406.843-155.383 411.081-154.455 415.32-153.527 419.639-151.791 424.038-149.248 428.438-146.705 432.172-143.577 435.24-139.863 438.307-136.15 440.669-131.851 442.324-126.967 443.978-122.083 444.806-116.694 444.806-110.801ZM422.888-109.105C422.888-115.483 421.697-120.811 419.316-125.09 416.934-129.368 413.988-132.557 410.476-134.656 406.964-136.755 403.331-138.087 399.577-138.652 395.824-139.217 392.171-139.5 388.618-139.5L369.365-139.5 369.365-76.6523 388.134-76.6523C394.431-76.6523 399.658-77.4596 403.816-79.0742 407.973-80.6888 411.465-82.929 414.29-85.7949 417.116-88.6608 419.255-92.0918 420.708-96.0879 422.161-100.084 422.888-104.423 422.888-109.105Z" transform="matrix(1 0 0 1 160.838 318)"/></g></g><text font-family="Calibri,Calibri_MSFontService,sans-serif" font-weight="400" font-size="248" transform="matrix(1 0 0 1 240.977 550)">OOP</text></g></svg>